<?xml version="1.0" encoding="UTF-8" standalone="no"?>
<svg width="155px" height="153px" viewBox="0 0 155 153" version="1.1" xmlns="http://www.w3.org/2000/svg" xmlns:xlink="http://www.w3.org/1999/xlink">
    <!-- Generator: Sketch 41.2 (35397) - http://www.bohemiancoding.com/sketch -->
    <title>que es really 2</title>
    <desc>Created with Sketch.</desc>
    <defs></defs>
    <g id="Page-1" stroke="none" stroke-width="1" fill="none" fill-rule="evenodd">
        <g id="que-es-really-2" transform="translate(2.000000, 2.000000)" fill="#000000">
            <path d="M91.7702654,46.307781 C93.8405953,47.2897002 95.723636,48.5517271 97.5168764,49.9689238 C98.1356381,50.4581867 98.7596279,50.3949466 99.1597318,49.9041412 C99.5619884,49.4102509 99.472188,48.7556381 98.8989415,48.2762468 C94.0005138,44.180752 88.350469,41.9645698 81.9983204,41.606106 C78.798412,41.4256402 75.6434039,41.8205056 72.5625118,42.7428865 C65.9594141,44.7196816 60.7266951,48.6001598 56.9092552,54.3229321 C53.2286686,59.8402509 51.7122104,65.9594311 52.2670047,72.5907023 C52.6975546,77.7393772 54.4455872,82.3978638 57.3773244,86.6235408 C57.8057216,87.2408265 58.2857847,87.8229445 58.7593896,88.4072219 C59.2659008,89.0325284 59.9151086,89.1605511 60.4219273,88.7619839 C60.9370495,88.3566298 60.9622674,87.7408865 60.488355,87.0575843 C60.3844079,86.9079673 60.2736951,86.7626692 60.160522,86.6195304 C56.333856,81.7808865 54.3797745,76.2845449 54.3865403,69.7448948 C54.358247,68.6790667 54.4720352,67.2714331 54.7005342,65.8727458 C55.6216035,60.2388182 58.1224833,55.3958555 62.162579,51.4089487 C66.5391187,47.0897996 71.8053591,44.5426091 77.9563794,43.9567892 C82.7677745,43.4986836 87.3817318,44.2260998 91.7702654,46.307781 Z" id="Fill-1"></path>
            <path d="M80.5472442,71.158112 C79.9567758,71.1241783 79.5074662,70.5929609 79.5637452,69.9941845 C79.6151037,69.4493936 80.0890161,69.0495923 80.6419652,69.0844516 C81.2136739,69.1205447 81.6525273,69.6057973 81.6303847,70.1777352 C81.6079346,70.7595447 81.1309468,71.1914288 80.5472442,71.158112 M95.9108022,67.8005219 C95.8216169,67.0999443 95.2391444,66.7516607 94.3663582,66.8843108 C90.9530202,67.4031886 87.5387595,67.9177476 84.1275741,68.4517414 C83.694564,68.5196089 83.4254703,68.4159567 83.138847,68.0673646 C82.3045029,67.0524371 81.1982971,66.6322756 79.9174112,66.9379878 C79.3127961,67.0823605 78.9486739,66.9133087 78.5442646,66.5039443 C75.3600405,63.2783874 72.1604397,60.0679464 68.9599163,56.8587393 C68.6557635,56.5539526 68.3356189,56.2541017 67.9804153,56.015023 C67.5480202,55.7241182 67.0950202,55.8185157 66.730898,56.1677248 C66.3455558,56.5376027 66.2336128,57.0049629 66.5353053,57.4698553 C66.7558084,57.8101182 67.0408939,58.114288 67.3287473,58.4030333 C70.5283481,61.6134743 73.7264112,64.8254578 76.9463094,68.0149215 C77.3965415,68.4609961 77.5552299,68.8577124 77.4122259,69.5117083 C76.9666067,71.5489671 78.5507228,73.4403108 80.713621,73.4292052 C81.9385354,73.3252445 83.013065,72.771199 83.5337228,71.5156503 C83.8080446,70.8545592 84.2195273,70.6666896 84.8502829,70.5741431 C88.1313807,70.0922839 91.4084804,69.5817352 94.6855802,69.073346 C95.5337635,68.9416213 95.9935293,68.4477311 95.9108022,67.8005219" id="Fill-3"></path>
            <path d="M81.7183707,90.9914311 C81.7183707,90.3540936 81.7183707,89.7167561 81.7180631,89.0794186 C81.7180631,89.0337623 81.7165255,88.988106 81.71222,88.9427582 C81.6408717,88.1638244 81.2410754,87.7300894 80.5952505,87.7307064 C79.9500407,87.7313234 79.5093422,88.1647499 79.4896599,88.9455346 C79.4555234,90.2877685 79.4576762,91.6318534 79.4865845,92.9740874 C79.5041141,93.7786257 79.969723,94.2715905 80.604169,94.2681971 C81.2481487,94.2644952 81.691,93.7721474 81.720831,92.9716195 C81.7454338,92.3123793 81.7257515,91.6515967 81.7257515,90.9914311 L81.7183707,90.9914311 Z" id="Fill-5"></path>
            <path d="M99.3887536,69.008841 C98.6039226,69.0264248 98.1653768,69.4524476 98.1512301,70.0937954 C98.1361609,70.7669176 98.5848554,71.1997271 99.401055,71.2376712 C100.057951,71.2679031 100.717,71.243841 101.375126,71.243841 L101.375126,71.2552551 C102.033253,71.2552551 102.691686,71.2722219 103.349198,71.2509362 C104.154633,71.2247147 104.648228,70.7993089 104.668218,70.1561101 C104.688515,69.5190812 104.198303,69.0298182 103.404862,69.0103834 C102.066774,68.9773752 100.726841,68.9786091 99.3887536,69.008841" id="Fill-7"></path>
            <path d="M61.7451301,71.2409104 C62.5757839,71.209136 63.0318593,70.8050159 63.0417004,70.1405315 C63.0518491,69.4683348 62.602232,69.0265791 61.7826495,69.0068358 C60.467012,68.974753 59.1501444,68.974136 57.8341994,68.9948048 C57.0290711,69.0074528 56.5394743,69.4516764 56.5247126,70.0967261 C56.5096434,70.7352975 56.99801,71.1977219 57.79668,71.235666 C58.4760263,71.2680573 59.1581403,71.2424528 59.8390242,71.2424528 L59.8390242,71.2458462 C60.4743929,71.2458462 61.1106841,71.265281 61.7451301,71.2409104" id="Fill-9"></path>
            <path d="M79.4857234,51.2777793 C79.5223202,52.0622658 79.9356481,52.5018621 80.5753222,52.5126592 C81.2242224,52.5234563 81.6806053,52.0940402 81.7012102,51.3200422 C81.7378069,49.9552886 81.7362692,48.5880671 81.7024403,47.223005 C81.6833731,46.4524004 81.2266827,45.9847317 80.6116114,45.9751685 C79.9676318,45.9652969 79.5066358,46.4573362 79.473422,47.248918 C79.4457438,47.9078497 79.4678864,48.5689408 79.4678864,49.2291064 L79.4792652,49.2291064 C79.4792652,49.9121002 79.4537397,50.596328 79.4857234,51.2777793" id="Fill-11"></path>
            <path d="M97.6777175,60.2107149 C97.9477338,60.6913402 98.41119,60.8875389 98.8983265,60.7104665 C99.7535831,60.3995099 100.538107,59.923512 101.249744,59.3524996 C101.60587,59.0671476 101.637854,58.6340296 101.499155,58.2194209 C101.355229,57.7900048 101.008944,57.5814665 100.552561,57.5015679 C100.484595,57.5086631 100.386799,57.4981745 100.30561,57.5302573 C99.4140637,57.8853277 98.5738764,58.3446673 97.8391737,58.9588681 C97.4498336,59.2843236 97.4258458,59.762481 97.6777175,60.2107149" id="Fill-13"></path>
            <path d="M63.0999169,58.7354298 C62.5103711,58.349819 61.8891491,58.012024 61.2722326,57.6702186 C61.0978599,57.5736617 60.8902733,57.5375685 60.7558802,57.4931462 C60.2204607,57.5526845 59.8486501,57.7618398 59.6954974,58.2184029 C59.5275829,58.7200054 59.6355279,59.1910675 60.0940635,59.4872166 C60.7238965,59.8944215 61.3694138,60.2828087 62.0352285,60.626465 C62.6133955,60.9253905 63.2376929,60.7208625 63.5178578,60.2140157 C63.8130921,59.6800219 63.678699,59.1139453 63.0999169,58.7354298" id="Fill-15"></path>
            <path d="M62.0401491,79.6209418 C61.3866358,79.9359087 60.7592631,80.3150412 60.1515727,80.713917 C59.6112326,81.0686789 59.477147,81.7115692 59.7714587,82.2100867 C60.0583894,82.6953393 60.6989862,82.8745712 61.2670045,82.5765712 C61.8906868,82.2489563 62.4943792,81.8818549 63.0968415,81.5156789 C63.4471246,81.3028217 63.6473303,80.9798342 63.6670126,80.592064 C63.6596318,79.7412524 62.8348212,79.2381075 62.0401491,79.6209418" id="Fill-17"></path>
            <path d="M70.1848615,87.0993228 C69.8979308,87.1054925 69.5734807,87.2199418 69.3631263,87.5157824 C68.8738371,88.2034035 68.4426721,88.9305112 68.1074582,89.7054346 C67.872501,90.2483745 68.0850081,90.7083311 68.5555377,91.0029377 C69.0402138,91.3058735 69.5621018,91.2309108 69.908387,90.7891551 C70.4419613,90.1083207 70.8903483,89.354683 71.1957312,88.5436665 C71.4546762,87.8560453 70.9629267,87.1625629 70.1848615,87.0993228" id="Fill-19"></path>
            <path d="M91.3053637,49.4378607 C90.7505695,50.1304176 90.285268,50.9000967 89.9888037,51.7388772 C89.7458505,52.4271153 90.2864982,53.1354052 90.9981356,53.1363306 C91.3155124,53.0906743 91.6657955,53.0138607 91.8573902,52.6988938 C92.2820969,51.9992416 92.7055735,51.2955791 93.0718485,50.5647696 C93.3344839,50.0409559 93.132433,49.563724 92.6612884,49.2610967 C92.1870684,48.9563099 91.6624126,48.9924031 91.3053637,49.4378607" id="Fill-21"></path>
            <path d="M68.4995047,49.276552 C68.117853,49.5495644 67.8973499,49.9496741 68.066187,50.4059288 C68.3835637,51.2632186 68.851633,52.0529495 69.4101177,52.7714195 C69.6884375,53.1289578 70.1319039,53.2409391 70.586134,53.0496762 C71.0286778,52.8633491 71.2482582,52.5156824 71.2704008,51.8990137 C70.9004354,51.0037797 70.4757287,49.9940965 69.6472277,49.249405 C69.326468,48.9609681 68.8651646,49.0149536 68.4995047,49.276552" id="Fill-23"></path>
            <path d="M106.466656,110.879445 C96.7417635,110.879445 88.8301016,102.943267 88.8301016,93.1882402 C88.8301016,83.4335217 96.7417635,75.4973437 106.466656,75.4973437 C116.191548,75.4973437 124.10321,83.4335217 124.10321,93.1882402 C124.10321,102.943267 116.191548,110.879445 106.466656,110.879445 M84.7069713,93.1882402 C84.7069713,94.1658406 84.7777045,95.1264741 84.902564,96.0701408 C84.3585334,96.1559006 83.8101974,96.2311718 83.2517126,96.2845404 C78.4160222,96.7475818 73.7796149,96.0155383 69.3750894,93.9107205 C67.434232,92.9830952 65.6406841,91.8321242 63.9636923,90.484646 C63.098287,89.7893126 62.4444662,89.779441 62.0025375,90.3825362 C61.5778308,90.9618778 61.7721933,91.5692919 62.598234,92.217735 C63.1354988,92.6394389 63.6601546,93.0815031 64.2229448,93.4668054 C70.6759652,97.8862133 77.710843,99.5255217 85.304513,98.2526977 C85.5637656,99.3428965 85.9032849,100.401629 86.3193807,101.421801 C85.3069733,101.603193 84.2810344,101.736768 83.2443318,101.819135 C82.3546312,101.890087 81.4566271,101.92618 80.5749224,101.92618 L80.5733847,101.92618 C72.4310711,101.925872 64.7128491,98.8659731 58.8407635,93.3110186 C53.1086067,87.8884058 49.6128491,80.6139358 48.9980853,72.8279917 C48.3162788,64.1974058 50.9552422,55.9052319 56.429069,49.4791056 C61.8702971,43.0912319 69.725065,39.0583602 77.9802442,38.4145445 C78.845957,38.3469855 79.7205884,38.3127433 80.5801505,38.3127433 C89.0017065,38.3127433 96.9238246,41.5691491 102.887248,47.4816418 C108.725197,53.2695052 112.055193,60.8984286 112.264625,68.9795963 C112.30768,70.0407971 112.296916,71.0973706 112.235409,72.1459234 C111.191941,71.857795 110.117719,71.6458634 109.018279,71.5162981 C109.09055,69.6709193 108.992446,67.7764907 108.724582,65.8351718 C108.004026,60.6192464 105.854967,55.9660041 102.48899,51.8998157 C101.93358,51.228853 101.322507,51.0712153 100.785857,51.4762609 C100.243364,51.8856253 100.218762,52.5109317 100.738804,53.2281677 C101.273609,53.9660725 101.861002,54.6681925 102.362285,55.4276915 C105.301711,59.8828841 106.85169,64.7656418 106.795411,70.1330352 C106.807098,70.5461014 106.802177,70.9582422 106.788645,71.3694576 C106.681008,71.3679151 106.574601,71.3614369 106.466656,71.3614369 C94.4681525,71.3614369 84.7069713,81.1528654 84.7069713,93.1882402 M116.564588,73.862971 C116.594112,73.6272857 116.62179,73.3912919 116.655311,73.1565321 L116.66669,67.2449648 L116.658387,67.1092298 C116.40344,65.0278571 116.114664,62.6688447 115.433472,60.4073147 C111.790405,48.3034555 103.93656,40.0051118 92.090902,35.7433416 C89.5964804,34.8459482 86.9230731,34.283265 83.91968,34.0238261 C83.9033807,34.0195072 83.8876963,34.0145714 83.8713969,34.0099441 C83.8221912,33.9960621 83.7729855,33.9824886 83.7234723,33.9704576 L83.5955375,33.9396087 L77.72868,33.9396087 L77.5961322,33.9476294 C75.0977126,34.2490228 72.849012,34.5556605 70.635678,35.2617909 C56.8709978,39.6525093 48.2824499,49.0577101 45.1083745,63.215795 C44.9066312,64.1171988 44.7962259,65.0256977 44.689511,65.9039648 C44.6415354,66.2991387 44.5935599,66.6936957 44.5372809,67.0867101 L44.5262096,72.9982774 L44.534513,73.1340124 C44.7971485,75.2838696 45.1074519,77.5710041 45.751124,79.8220455 C48.2535415,88.5769524 53.3709346,95.5552733 60.9612218,100.562352 C65.846733,103.785749 71.3337839,105.688816 77.2732198,106.219725 C77.2895191,106.224043 77.3061261,106.228979 77.3224255,106.233607 C77.3710161,106.24718 77.4192992,106.261062 77.4685049,106.272785 L77.5967473,106.303942 L83.5303399,106.303942 L83.5964601,106.295613 C85.3364967,106.086458 86.9541342,105.870824 88.5262564,105.521615 C92.4522564,111.24994 99.028291,115.015352 106.466656,115.015352 C118.464851,115.015352 128.22634,105.223923 128.22634,93.1882402 C128.22634,84.80753 123.490291,77.5191781 116.564588,73.862971" id="Fill-25" stroke="#FFFFFF" stroke-width="2.5"></path>
            <path d="M109.519716,99.6775758 C109.23094,100.224218 108.880042,100.649932 108.472557,100.946698 C108.146877,101.191329 107.80705,101.368093 107.458612,101.47483 L107.458612,94.7738408 C108.381526,95.1495799 109.027044,95.5654226 109.380095,96.0121141 C109.764822,96.5035364 109.951803,97.0905903 109.952111,97.7948698 C109.925355,98.5105634 109.778353,99.1469754 109.519716,99.6775758 L109.519716,99.6775758 Z M105.624777,90.7116627 C104.130769,90.0894412 103.403139,89.2404805 103.402832,88.1339319 C103.428665,87.3815282 103.67131,86.7916979 104.135074,86.3406876 C104.57731,85.9455137 105.076748,85.6848408 105.624777,85.5620623 L105.624777,90.7116627 Z M111.783486,93.7197352 C110.792298,92.8010561 109.33827,92.0171865 107.458612,91.3878698 L107.458612,85.5558925 C107.621913,85.5922942 107.772606,85.6456627 107.908844,85.7138387 C107.950976,85.7354329 108.021095,85.7675157 108.119813,85.8088532 C108.198543,85.84217 108.270506,85.8776462 108.336626,85.9149733 C108.415355,85.9597041 108.533756,86.0220188 108.690907,86.1006834 C108.837294,86.1750292 108.952005,86.2345675 109.035655,86.2814578 C109.612591,86.6025944 110.026842,86.7944743 110.301164,86.8691286 L110.354367,86.883319 L110.409416,86.8790002 C110.83074,86.844758 111.186866,86.7031617 111.483331,86.4434143 C111.764418,86.1623812 111.906807,85.8218097 111.906807,85.4300292 C111.906807,84.9531058 111.706602,84.5107331 111.311111,84.1158677 L111.281587,84.0896462 C110.334993,83.3548263 109.049801,82.8775944 107.458612,82.6693646 L107.458612,81.5766979 C107.458612,81.0275882 107.09695,80.6999733 106.491105,80.6999733 C106.23831,80.6999733 106.040565,80.7706172 105.901866,80.910054 C105.72042,81.0568946 105.624777,81.2666669 105.624777,81.519319 L105.624777,82.6678222 C104.673569,82.7955364 103.782023,83.1074184 102.966746,83.5991493 C102.067204,84.1658429 101.358335,84.8494536 100.85982,85.6314723 C100.328398,86.4690188 100.043312,87.3423501 100.012559,88.2375841 C100.012559,89.2759567 100.254282,90.1995716 100.730962,90.9831327 C101.18427,91.721346 101.840551,92.3497373 102.691809,92.857818 C103.591044,93.347081 104.576695,93.7567538 105.624777,94.0760395 L105.624777,101.674114 C104.592687,101.601002 103.469875,101.173746 102.267718,100.392652 C101.945113,100.214654 101.571765,100.124267 101.158129,100.124267 C100.641777,100.124267 99.9891862,100.380313 99.815736,101.600385 L99.8108155,101.633394 L99.8132758,101.667019 C99.8486424,102.195768 100.176783,102.681021 100.789701,103.110437 C101.365408,103.50993 102.124406,103.852352 103.045783,104.128141 C103.874899,104.373389 104.740612,104.510667 105.624777,104.537505 L105.624777,105.613514 C105.624777,105.869251 105.717345,106.09599 105.892333,106.269977 C106.078392,106.454145 106.280135,106.547617 106.491105,106.547617 C106.7276,106.547617 106.955176,106.461549 107.157227,106.298975 C107.294695,106.196249 107.458612,105.994497 107.458612,105.613514 L107.458612,104.38357 C108.528528,104.208348 109.464052,103.859139 110.239349,103.346739 C111.143504,102.768632 111.869596,102.024557 112.402247,101.127781 C112.94597,100.155733 113.261809,99.1232217 113.342076,98.0357994 C113.342076,97.1248325 113.210758,96.298083 112.951813,95.5786876 C112.689178,94.8488035 112.2983,94.225348 111.783486,93.7197352 L111.783486,93.7197352 Z" id="Fill-27" stroke="#FFFFFF" stroke-width="0.7"></path>
            <path d="M43.7780061,94.7312077 L36.2120143,102.319102 L36.2120143,75.378483 C36.2120143,74.3919364 35.4302587,73.6077584 34.4470672,73.6077584 C33.4635682,73.6077584 32.6562872,74.3919364 32.6578248,75.378483 L32.6578248,102.320645 L25.1173585,94.7312077 C24.4118717,94.0235348 23.3013605,94.0235348 22.5958737,94.7312077 C21.8906945,95.4388805 21.8906945,96.5528329 22.5958737,97.2605058 L33.1615682,107.860483 C33.4903238,108.188715 33.9448615,108.391083 34.4486049,108.391083 C34.9520407,108.391083 35.4065784,108.188715 35.7337963,107.860483 L46.2994908,97.2605058 C46.9809898,96.5528329 46.9809898,95.4388805 46.2994908,94.7312077 C45.5940041,94.0235348 44.4834929,94.0235348 43.7780061,94.7312077" id="Fill-29" stroke="#FFFFFF"></path>
            <path d="M125.003397,25.9858468 L145.680864,25.9858468 L145.680864,5.24430642 L125.003397,5.24430642 L125.003397,25.9858468 Z M125.003397,143.710963 L145.680864,143.710963 L145.680864,122.969422 L125.003397,122.969422 L125.003397,143.710963 Z M119.775291,121.422969 L119.775291,130.718039 L31.1336782,130.718039 L31.1336782,121.422969 C31.1336782,119.384168 29.4797515,117.725116 27.4469409,117.725116 L18.1808921,117.725116 L18.1808921,31.2301532 L27.4469409,31.2301532 C29.4797515,31.2301532 31.1336782,29.5711014 31.1336782,27.5323002 L31.1336782,19.9869772 L119.775291,19.9869772 L119.775291,27.5323002 C119.775291,29.5711014 121.429218,31.2301532 123.461721,31.2301532 L132.728077,31.2301532 L132.728077,117.725116 L123.461721,117.725116 C121.429218,117.725116 119.775291,119.384168 119.775291,121.422969 L119.775291,121.422969 Z M5.22810591,143.710963 L25.9055723,143.710963 L25.9055723,122.969422 L5.22810591,122.969422 L5.22810591,143.710963 Z M5.22810591,25.9858468 L25.9055723,25.9858468 L25.9055723,5.24430642 L5.22810591,5.24430642 L5.22810591,25.9858468 Z M147.222232,31.2301532 C149.255043,31.2301532 150.908969,29.5711014 150.908969,27.5323002 L150.908969,3.69816149 C150.908969,1.65874327 149.255043,0 147.222232,0 L123.461721,0 C121.429218,0 119.775291,1.65874327 119.775291,3.69816149 L119.775291,14.7426708 L31.1336782,14.7426708 L31.1336782,3.69816149 C31.1336782,1.65874327 29.4797515,0 27.4469409,0 L3.68642974,0 C1.65392668,0 0,1.65874327 0,3.69816149 L0,27.5323002 C0,29.5711014 1.65392668,31.2301532 3.68642974,31.2301532 L12.9527862,31.2301532 L12.9527862,117.725116 L3.68642974,117.725116 C1.65392668,117.725116 0,119.384168 0,121.422969 L0,145.257108 C0,147.296217 1.65392668,148.955269 3.68642974,148.955269 L27.4469409,148.955269 C29.4797515,148.955269 31.1336782,147.296217 31.1336782,145.257108 L31.1336782,135.962346 L119.775291,135.962346 L119.775291,145.257108 C119.775291,147.296217 121.429218,148.955269 123.461721,148.955269 L147.222232,148.955269 C149.255043,148.955269 150.908969,147.296217 150.908969,145.257108 L150.908969,121.422969 C150.908969,119.384168 149.255043,117.725116 147.222232,117.725116 L137.956183,117.725116 L137.956183,31.2301532 L147.222232,31.2301532 Z" id="Fill-31" stroke="#FFFFFF" stroke-width="2.7"></path>
        </g>
    </g>
</svg>