<?xml version="1.0" encoding="UTF-8" standalone="no"?>
<svg
   xmlns:dc="http://purl.org/dc/elements/1.1/"
   xmlns:cc="http://creativecommons.org/ns#"
   xmlns:rdf="http://www.w3.org/1999/02/22-rdf-syntax-ns#"
   xmlns:svg="http://www.w3.org/2000/svg"
   xmlns="http://www.w3.org/2000/svg"
   xmlns:sodipodi="http://sodipodi.sourceforge.net/DTD/sodipodi-0.dtd"
   xmlns:inkscape="http://www.inkscape.org/namespaces/inkscape"
   width="108.85715mm"
   height="136.07143mm"
   viewBox="0 0 108.85715 136.07143"
   version="1.1"
   id="svg883"
   inkscape:version="1.0.2-2 (e86c870879, 2021-01-15)"
   sodipodi:docname="firmar.svg">
  <defs
     id="defs877" />
  <sodipodi:namedview
     id="base"
     pagecolor="#ffffff"
     bordercolor="#666666"
     borderopacity="1.0"
     inkscape:pageopacity="0.0"
     inkscape:pageshadow="2"
     inkscape:zoom="0.7"
     inkscape:cx="449.44203"
     inkscape:cy="164.89116"
     inkscape:document-units="mm"
     inkscape:current-layer="layer1"
     inkscape:document-rotation="0"
     showgrid="false"
     inkscape:window-width="1366"
     inkscape:window-height="705"
     inkscape:window-x="-8"
     inkscape:window-y="-8"
     inkscape:window-maximized="1"
     fit-margin-top="0"
     fit-margin-left="0"
     fit-margin-right="0"
     fit-margin-bottom="0" />
  <metadata
     id="metadata880">
    <rdf:RDF>
      <cc:Work
         rdf:about="">
        <dc:format>image/svg+xml</dc:format>
        <dc:type
           rdf:resource="http://purl.org/dc/dcmitype/StillImage" />
        <dc:title></dc:title>
      </cc:Work>
    </rdf:RDF>
  </metadata>
  <g
     inkscape:label="Capa 1"
     inkscape:groupmode="layer"
     id="layer1"
     transform="translate(-49.136902,-51.404758)">
    <rect
       style="fill:#000000;stroke-width:0.254203"
       id="rect960"
       width="108.85715"
       height="136.07143"
       x="49.136902"
       y="51.404758" />
    <rect
       style="fill:#ffffff;stroke-width:0.263152"
       id="rect962"
       width="107.05704"
       height="134.15344"
       x="50.078224"
       y="52.142952" />
    <rect
       style="fill:#000000;stroke-width:0.202191"
       id="rect964"
       width="56.618549"
       height="1.3822007"
       x="54.771255"
       y="91.934189" />
    <rect
       style="fill:#000000;stroke-width:0.202191"
       id="rect964-6"
       width="56.618549"
       height="1.3822007"
       x="55.60144"
       y="106.27617" />
    <rect
       style="fill:#000000;stroke-width:0.202191"
       id="rect964-2"
       width="56.618549"
       height="1.3822007"
       x="55.97942"
       y="120.26128" />
    <rect
       style="fill:#000000;stroke-width:0.153907"
       id="rect964-25"
       width="32.806049"
       height="1.3822007"
       x="56.357391"
       y="133.86842" />
    <rect
       style="fill:#000000;stroke-width:0.136097"
       id="rect964-9"
       width="56.618549"
       height="0.6262483"
       x="56.735367"
       y="176.95772" />
    <path
       style="fill:#000000;stroke-width:0.264583"
       id="path1027"
       d="m 71.706128,172.61064 c 1.582409,-2.61995 3.679013,-4.89481 5.229585,-7.53489 0.526555,-0.89655 0.959924,-1.84465 1.439886,-2.76698 1.225947,-2.60335 2.136926,-5.3282 2.881411,-8.10248 0.13984,-0.5211 0.776581,-2.51502 0.540408,-3.32158 -0.05839,-0.19941 -0.339444,-0.23972 -0.509166,-0.35957 -0.600959,0.34137 -1.27167,0.58194 -1.802874,1.0241 -0.785992,0.65423 -2.074243,2.91807 -2.457968,3.62225 -1.343298,2.46509 -2.346915,5.05703 -3.333642,7.67737 -0.376423,1.41983 -1.992836,4.42526 -0.717785,5.83041 0.66055,0.72794 1.336593,0.69463 2.238372,0.8748 2.095547,-0.0571 0.819115,0.0423 2.864509,-0.26734 0.415507,-0.0629 1.359225,-0.34771 1.823333,0.0333 0.299615,0.24595 0.173517,0.81081 0.152242,1.09742 -0.04443,0.42893 -0.208447,0.83878 -0.287314,1.25936 -0.01633,0.0871 0.0037,0.29658 0.08104,0.25324 0.368303,-0.20649 0.694772,-0.48003 1.042157,-0.72005 0.09982,-0.25527 0.225036,-0.52158 0.444672,-0.69889 0.08833,-0.0713 0.381338,-0.24546 0.291438,-0.17616 -0.488561,0.37667 -0.975886,0.57436 0.116303,0.0457 1.56936,-0.62644 3.421248,-2.07259 5.124696,-2.19865 0.212617,-0.0157 0.423471,0.0498 0.635209,0.0748 0.528296,-0.22471 1.161018,1.71145 1.18322,1.70237 0.455985,-0.18635 0.83168,-0.52812 1.247521,-0.79219 0.971867,-3.31198 1.131747,-6.79861 1.389115,-10.22208 -1.561536,1.41054 0.736346,-2.01949 0.144386,-1.84543 -1.277073,0.37551 -1.234043,1.05815 -1.547691,2.10147 -0.700656,2.33068 -0.57413,1.93489 -1.247389,4.42089 -0.47171,1.99157 -1.046932,3.96069 -1.424032,5.97419 -0.15054,0.8038 -0.252093,1.54678 -0.157729,2.35472 0.08546,0.0279 0.174532,0.12106 0.256373,0.0838 1.225794,-0.55756 2.201627,-1.46356 3.257466,-2.26661 0.774438,-0.58903 1.572231,-1.14671 2.358157,-1.72032 -1.886278,-0.24882 1.406099,-0.47435 1.062185,-0.73267 -0.116927,-0.0878 -0.299783,-0.0155 -0.437395,0.034 -0.340046,0.12227 -0.650902,0.31411 -0.975009,0.47391 -3.103747,1.53028 0.702504,-0.32791 -2.426178,1.19558 -1.277398,0.80409 -3.625387,1.57144 -4.629709,2.67113 -0.08925,0.0977 0.0204,0.31845 0.141965,0.37078 0.413644,0.17806 0.883722,0.17396 1.325584,0.26094 3.271316,0.22889 6.553075,0.2391 9.830387,0.29209 0,0 0.797695,-0.57754 0.797695,-0.57754 v 0 c -3.248327,-0.055 -6.502159,-0.0696 -9.742339,-0.33499 -0.410721,-0.0618 -0.821444,-0.12352 -1.232165,-0.18528 -0.03162,-0.0831 -0.0072,-0.23412 -0.09485,-0.24927 -0.175768,-0.0304 -0.651629,0.25895 -0.515475,0.14371 0.275643,-0.23331 0.63391,-0.3462 0.953463,-0.51443 0.771507,-0.40617 1.55434,-0.7906 2.322079,-1.20404 0.406881,-0.1977 0.81376,-0.39541 1.220642,-0.59311 0.39874,-0.19852 0.796017,-0.40002 1.196221,-0.59558 0.134316,-0.0656 1.100227,-0.36195 1.22179,-0.77445 0.117475,-0.39863 -2.25547,2.77339 -1.020532,0.71614 -1.149049,0.84022 -2.283196,1.69206 -3.413461,2.55663 -0.263446,0.20152 -0.602533,0.32391 -0.802122,0.58881 -0.07419,0.0985 0.916398,-0.37311 0.3341,-0.15863 -0.104677,-0.7864 -0.01011,-1.51572 0.130048,-2.30045 0.358659,-2.00807 0.920851,-3.97244 1.396466,-5.95378 0.619979,-2.24645 0.612912,-2.31394 1.291423,-4.43637 0.134898,-0.42196 0.579697,-0.84392 0.425249,-1.25912 -0.09967,-0.26794 -0.617635,-0.0483 -0.849291,0.11916 -0.491461,0.35536 1.263999,1.87618 -0.0952,1.81694 -0.241136,3.41128 -0.38568,6.9195 -1.473742,10.18636 0.251979,-0.0685 0.536967,-0.0632 0.755936,-0.20549 0.06705,-0.0436 -0.08938,-0.13387 -0.119711,-0.20784 -0.268531,-0.65493 -0.40123,-1.25932 -1.132904,-1.5728 -0.221469,-0.0334 -0.440703,-0.11148 -0.664408,-0.10035 -1.688126,0.084 -3.582276,1.55823 -5.136057,2.17368 -1.023213,0.49742 -2.293795,0.84261 -2.747222,1.97525 0.291494,-0.14752 0.567447,-0.33092 0.87448,-0.44254 0.03672,-0.0134 0.003,0.13306 0.03565,0.11167 5.3e-4,-2.7e-4 0.271844,-1.39864 0.27581,-1.41649 0.01241,-0.36693 0.120438,-0.92371 -0.230404,-1.22189 -0.492631,-0.41869 -1.402078,-0.13203 -1.875894,-0.0575 -2.092735,0.32931 -0.702296,0.21265 -2.838402,0.2955 -0.856184,-0.15516 -1.53598,-0.11578 -2.172872,-0.79675 -1.248495,-1.33488 0.351282,-4.36853 0.699262,-5.72373 1.271495,-3.39851 2.584506,-6.86189 4.690184,-9.85259 0.353737,-0.50241 0.827942,-0.91155 1.188053,-1.40942 0.02976,-0.0411 -0.100139,-0.017 -0.150209,-0.0254 0.158769,0.0825 0.422762,0.0768 0.476303,0.24754 0.250783,0.79965 -0.368123,2.75974 -0.503822,3.27307 -0.731658,2.76771 -1.643452,5.48286 -2.870962,8.07452 -0.485201,0.92066 -0.92401,1.8673 -1.4556,2.76198 -1.579938,2.65907 -3.707262,4.94871 -5.316892,7.58858 0,0 1.021937,-0.46236 1.021937,-0.46236 z" />
    <rect
       style="fill:#000000;stroke-width:0.264583"
       id="rect1029"
       width="94.872025"
       height="3.0238097"
       x="56.69643"
       y="62.36607" />
    <g
       id="g1041"
       transform="matrix(0.08950212,0,0,0.08587961,97.094769,129.06726)">
      <path
         d="m 282.099,177.55 h 15 v 15.001 h -15 z"
         transform="matrix(0.707,-0.707,0.707,0.707,-46.029,258.977)"
         id="path1031" />
      <path
         d="M 503.481,42.486 502.36,25.673 487.564,10.877 H 471.45 L 458.411,23.916 434.683,0.188 418.217,0 320.644,97.573 343.039,119.968 300.143,163.9 310.875,174.379 426.773,55.682 458.545,87.454 194.559,353.023 163.239,321.703 278.985,206.27 268.393,195.649 37.347,426.07 l -1.069,1.065 -30.057,73.2 9.366,9.366 73.709,-29.508 390.431,-392.77 -10.59,-10.59 z M 183.984,363.662 85.054,463.185 53.257,431.388 152.618,332.296 Z M 45.303,444.648 71.726,471.071 27.122,488.927 Z M 477.663,25.877 h 3.688 l 6.417,6.417 0.293,4.399 -29.532,29.532 -10.606,-10.606 z m -51.017,8.465 -73.127,74.893 -11.662,-11.662 82.503,-82.503 4.04,0.047 19.405,19.405 -10.489,10.489 z"
         id="path1033" />
      <path
         d="m 419.327,79.82 h 15 v 15 h -15 z"
         transform="matrix(0.707,-0.707,0.707,0.707,63.259,327.371)"
         id="path1035" />
      <path
         d="m 398.114,101.032 h 15 v 15.001 h -15 z"
         transform="matrix(0.707,-0.707,0.707,0.707,42.057,318.601)"
         id="path1037" />
      <path
         d="m 376.901,122.246 h 15 v 15 h -15 z"
         transform="matrix(0.707,-0.707,0.707,0.707,20.861,309.848)"
         id="path1039" />
    </g>
  </g>
</svg>
