<?xml version="1.0" encoding="UTF-8" standalone="no"?>
<svg width="120px" height="93px" viewBox="0 0 120 93" version="1.1" xmlns="http://www.w3.org/2000/svg" xmlns:xlink="http://www.w3.org/1999/xlink">
    <!-- Generator: Sketch 41.2 (35397) - http://www.bohemiancoding.com/sketch -->
    <title>ventaja1</title>
    <desc>Created with Sketch.</desc>
    <defs></defs>
    <g id="Page-1" stroke="none" stroke-width="1" fill="none" fill-rule="evenodd">
        <g id="ventaja1" transform="translate(1.000000, 1.000000)" fill="#000000">
            <path d="M115.128649,87.2275606 C115.128649,87.7153713 114.733691,88.1125446 114.247979,88.1125446 L3.63362416,88.1125446 C3.14791162,88.1125446 2.75295443,87.7153713 2.75295443,87.2275606 L2.75295443,84.1825048 L115.128649,84.1825048 L115.128649,87.2275606 Z M72.3747587,81.4167936 L45.5068443,81.4167936 L47.3255599,74.7901084 L70.5560431,74.7901084 L72.3747587,81.4167936 Z M11.7016486,65.3969869 L106.179774,65.3969869 L114.263857,81.4166124 L75.2305752,81.4166124 L73.2417159,74.1712359 C72.8945722,72.9068434 71.7405538,72.0240347 70.4355171,72.0240347 L47.4455446,72.0240347 C46.1403275,72.0240347 44.9863092,72.9068434 44.6393459,74.1708733 L42.650667,81.4166124 L3.61756606,81.4166124 L11.7016486,65.3969869 Z M12.2326486,62.6312757 L105.648954,62.6312757 L105.648954,2.76632749 L12.2326486,2.76632749 L12.2326486,62.6312757 Z M117.878554,82.7397378 L117.875306,82.6810048 C117.869893,82.6168335 117.861954,82.5631761 117.851129,82.5118753 L117.848242,82.502449 C117.836153,82.4487916 117.822982,82.4016602 117.807285,82.3559789 L117.796459,82.3266124 C117.777875,82.2762179 117.760554,82.2359749 117.741609,82.1970008 L117.726994,82.1634649 L108.401746,63.683939 L108.401746,3.01648685 C108.401746,1.35310837 107.05485,7.25099601e-05 105.399242,7.25099601e-05 L12.4820003,7.25099601e-05 C10.8263917,7.25099601e-05 9.47949572,1.35310837 9.47949572,3.01648685 L9.47949572,63.6832139 L9.44052324,63.7606183 L0.152985015,82.1661841 L0.143602752,82.1886622 C0.120688379,82.2359749 0.10318685,82.2767618 0.0874896024,82.3189988 L0.0732357798,82.3579729 C0.0593428135,82.3996661 0.0454498471,82.4473414 0.034624159,82.4957418 L0.0272266055,82.5245645 C0.0194681957,82.5628135 0.0117097859,82.6166522 0.00665779817,82.6713972 L0.00304923547,82.7401004 C0.0016058104,82.7598594 -1.80428133e-05,82.7796183 -1.80428133e-05,82.7997398 L-1.80428133e-05,87.2279231 C-1.80428133e-05,89.2407996 1.62996972,90.8786183 3.63362416,90.8786183 L114.247979,90.8786183 C116.251633,90.8786183 117.881621,89.2407996 117.881621,87.2279231 L117.881621,82.7997398 C117.881621,82.7796183 117.879997,82.7596781 117.878554,82.7397378 L117.878554,82.7397378 Z" id="Fill-1" stroke="#FFFFFF"></path>
            <path d="M99.844419,36.3326745 C99.28437,36.3326745 98.8286086,36.7903936 98.8286086,37.3530709 L98.8286086,55.7787582 L19.0530306,55.7787582 L19.0530306,37.3532522 C19.0530306,36.7903936 18.5972691,36.3326745 18.0372202,36.3326745 C17.4771713,36.3326745 17.0215902,36.7903936 17.0215902,37.3532522 L17.0215902,55.8075809 C17.0215902,56.9169833 17.9199419,57.819551 19.0241621,57.819551 L98.8574771,57.819551 C99.9616972,57.819551 100.860229,56.9169833 100.860229,55.8075809 L100.860229,37.3532522 C100.860049,36.7905749 100.404468,36.3326745 99.844419,36.3326745" id="Fill-4"></path>
            <path d="M18.0371841,29.064693 C18.597233,29.064693 19.0529945,28.6069739 19.0529945,28.0442966 L19.0529945,9.61860936 L98.8285725,9.61860936 L98.8285725,28.0442966 C98.8285725,28.6069739 99.2843339,29.064693 99.8443829,29.064693 C100.404432,29.064693 100.860013,28.6069739 100.860013,28.0442966 L100.860013,9.58978665 C100.860013,8.48038426 99.9616612,7.57781653 98.857441,7.57781653 L19.0243064,7.57781653 C17.9200862,7.57781653 17.0215541,8.48038426 17.0215541,9.58978665 L17.0215541,28.0442966 C17.0215541,28.6069739 17.4771352,29.064693 18.0371841,29.064693" id="Fill-6"></path>
            <path d="M40.8493086,35.1314382 C37.2293789,35.1314382 34.2835287,32.1721255 34.2835287,28.5348446 C34.2835287,24.8973825 37.2293789,21.9380697 40.8493086,21.9380697 C44.4692382,21.9380697 47.4150884,24.8973825 47.4150884,28.5348446 C47.4150884,32.1721255 44.4692382,35.1314382 40.8493086,35.1314382 M40.8493086,21.5171494 C36.99807,21.5171494 33.8645746,24.664988 33.8645746,28.5348446 C33.8645746,32.4045199 36.99807,35.5523586 40.8493086,35.5523586 C44.7007275,35.5523586 47.8342229,32.4045199 47.8342229,28.5348446 C47.8342229,24.664988 44.7007275,21.5171494 40.8493086,21.5171494" id="Fill-8"></path>
            <path d="M28.7392609,28.5350259 C28.7392609,21.8260418 34.1717716,16.3676733 40.8494168,16.3676733 C47.5270621,16.3676733 52.9597532,21.8260418 52.9597532,28.5350259 C52.9597532,33.6670996 49.6756003,38.2843526 44.9054413,39.9926873 L44.9054413,38.1594542 C48.6323648,36.5680418 51.2525422,32.8535378 51.2525422,28.5350259 C51.2525422,22.771753 46.5859489,18.0830777 40.8494168,18.0830777 C35.1130651,18.0830777 30.4462914,22.771753 30.4462914,28.5350259 C30.4462914,32.272008 32.4147624,35.5478267 35.3584474,37.3959243 L35.3584474,39.3725458 C31.3495147,37.3165259 28.7392609,33.1343327 28.7392609,28.5350259 L28.7392609,28.5350259 Z M40.8494168,38.3438108 C40.5524321,38.3438108 40.2597777,38.3253207 39.9692884,38.2990359 C39.6813251,38.2589741 39.242163,38.1937151 38.7490529,38.1090598 C34.3729489,37.1401454 31.0864505,33.2184442 31.0864505,28.5350259 C31.0864505,23.126508 35.4663434,18.726241 40.8494168,18.726241 C46.2326706,18.726241 50.6123832,23.126508 50.6123832,28.5350259 C50.6123832,33.9435438 46.2326706,38.3438108 40.8494168,38.3438108 L40.8494168,38.3438108 Z M44.2652823,51.7617789 L40.6034933,48.0826235 L40.6034933,38.9744661 C40.6861294,38.9764602 40.7664199,38.9869741 40.8494168,38.9869741 C42.0472792,38.9869741 43.1935391,38.7723446 44.2652823,38.3963805 L44.2652823,51.7617789 Z M40.2834138,48.670498 L44.9054413,53.3145797 L44.9054413,41.3517052 C50.4119275,39.592251 54.2400713,34.3621076 54.2400713,28.5350259 C54.2400713,21.1165319 48.2330774,15.0811653 40.8494168,15.0811653 C33.4659367,15.0811653 27.4589428,21.1165319 27.4589428,28.5350259 C27.4589428,33.8409422 30.5958664,38.6519781 35.3584474,40.8066116 L35.3584474,53.6185777 L40.2834138,48.670498 Z" id="Fill-10"></path>
            <polygon id="Fill-12" points="39.3475691 30.9017329 37.3937128 28.938707 36.7282939 29.6023544 39.3475691 32.2339221 44.9704315 26.5848524 44.3097037 25.9210237"></polygon>
            <path d="M58.9408015,23.6259203 L75.3597618,23.6259203 C75.9575202,23.6259203 76.4423306,23.1388347 76.4423306,22.5382709 C76.4423306,21.9377072 75.9575202,21.4506215 75.3597618,21.4506215 L58.9408015,21.4506215 C58.3430431,21.4506215 57.8582327,21.9377072 57.8582327,22.5382709 C57.8582327,23.1388347 58.3430431,23.6259203 58.9408015,23.6259203" id="Fill-14"></path>
            <path d="M58.9408015,30.1518167 L89.3128107,30.1518167 C89.9105691,30.1518167 90.3953795,29.6647311 90.3953795,29.0641673 C90.3953795,28.4636036 89.9105691,27.9765179 89.3128107,27.9765179 L58.9408015,27.9765179 C58.3430431,27.9765179 57.8582327,28.4636036 57.8582327,29.0641673 C57.8582327,29.6647311 58.3430431,30.1518167 58.9408015,30.1518167" id="Fill-16"></path>
        </g>
    </g>
</svg>