<?xml version="1.0" encoding="UTF-8" standalone="no"?>
<svg width="150px" height="149px" viewBox="0 0 150 149" version="1.1" xmlns="http://www.w3.org/2000/svg" xmlns:xlink="http://www.w3.org/1999/xlink">
    <!-- Generator: Sketch 41.2 (35397) - http://www.bohemiancoding.com/sketch -->
    <title>que es really 1</title>
    <desc>Created with Sketch.</desc>
    <defs></defs>
    <g id="Page-1" stroke="none" stroke-width="1" fill="none" fill-rule="evenodd">
        <g id="que-es-really-1" transform="translate(2.000000, 1.000000)" stroke="#FFFFFF" fill="#000000">
            <path d="M109.421079,5.16758851 C113.449866,5.16758851 116.715564,8.44292317 116.715564,12.4841133 L116.715564,19.7997648 L19.45286,19.7997648 L19.45286,12.4841133 C19.443862,9.83636673 18.5669913,7.2660499 16.9577984,5.16758851 L109.421079,5.16758851 Z M7.29451412,146.603711 L99.6945181,146.603711 C103.724466,146.603711 106.990164,143.328377 106.990164,139.28806 L106.990164,129.533955 C106.990164,128.187959 105.901695,127.096084 104.558379,127.096084 C103.215063,127.096084 102.126594,128.187959 102.126594,129.533955 L102.126594,139.28806 C102.126594,140.63522 101.037834,141.727095 99.6945181,141.727095 L7.29451412,141.727095 C5.95119801,141.727095 4.86272883,140.63522 4.86272883,139.28806 L4.86272883,7.60633307 C4.86272883,6.25946376 5.95119801,5.16758851 7.29451412,5.16758851 C11.3233014,5.16758851 14.5892895,8.44292317 14.5892895,12.4841133 L14.5892895,19.7997648 C14.5892895,22.4926301 16.7665181,24.6763806 19.45286,24.6763806 L102.126594,24.6763806 L102.126594,39.3082657 C102.126594,40.6542618 103.215063,41.746137 104.558379,41.746137 C105.901695,41.746137 106.990164,40.6542618 106.990164,39.3082657 L106.990164,24.6763806 L116.715564,24.6763806 C119.402196,24.6763806 121.579425,22.4926301 121.579425,19.7997648 L121.579425,12.4841133 C121.571588,5.7532598 116.132725,0.298832079 109.421079,0.290972673 L7.29451412,0.290972673 C3.2660171,0.290972673 2.90258449e-05,3.56630733 2.90258449e-05,7.60633307 L2.90258449e-05,139.28806 C2.90258449e-05,143.328377 3.2660171,146.603711 7.29451412,146.603711 L7.29451412,146.603711 Z" id="Fill-1" stroke-width="2.5"></path>
            <path d="M14.5891734,88.0788196 L31.6102191,88.0788196 C32.9535352,88.0788196 34.0422946,86.9869444 34.0422946,85.640075 C34.0422946,84.294079 32.9535352,83.2022038 31.6102191,83.2022038 L14.5891734,83.2022038 C13.2458573,83.2022038 12.1573881,84.294079 12.1573881,85.640075 C12.1573881,86.9869444 13.2458573,88.0788196 14.5891734,88.0788196" id="Fill-4" stroke-width="2.5"></path>
            <path d="M14.5891734,97.8331574 L31.6102191,97.8331574 C32.9535352,97.8331574 34.0422946,96.7412822 34.0422946,95.3944129 C34.0422946,94.0472525 32.9535352,92.9553772 31.6102191,92.9553772 L14.5891734,92.9553772 C13.2458573,92.9553772 12.1573881,94.0472525 12.1573881,95.3944129 C12.1573881,96.7412822 13.2458573,97.8331574 14.5891734,97.8331574" id="Fill-6" stroke-width="2.5"></path>
            <path d="M14.5891734,107.587466 L38.9047042,107.587466 C40.2480203,107.587466 41.3367797,106.495591 41.3367797,105.148722 C41.3367797,103.801561 40.2480203,102.709686 38.9047042,102.709686 L14.5891734,102.709686 C13.2458573,102.709686 12.1573881,103.801561 12.1573881,105.148722 C12.1573881,106.495591 13.2458573,107.587466 14.5891734,107.587466" id="Fill-8" stroke-width="2.5"></path>
            <path d="M38.9048493,114.902943 C38.9048493,116.250103 39.9936087,117.341688 41.3366346,117.341688 L51.0631952,117.341688 C52.4065113,117.341688 53.4952708,116.250103 53.4952708,114.902943 C53.4952708,113.555783 52.4065113,112.464198 51.0631952,112.464198 L41.3366346,112.464198 C39.9936087,112.464198 38.9048493,113.555783 38.9048493,114.902943" id="Fill-10" stroke-width="2.5"></path>
            <path d="M14.5891734,117.341804 L31.6102191,117.341804 C32.9535352,117.341804 34.0422946,116.249929 34.0422946,114.903059 C34.0422946,113.555899 32.9535352,112.464024 31.6102191,112.464024 L14.5891734,112.464024 C13.2458573,112.464024 12.1573881,113.555899 12.1573881,114.903059 C12.1573881,116.249929 13.2458573,117.341804 14.5891734,117.341804" id="Fill-12" stroke-width="2.5"></path>
            <path d="M14.5891734,127.096142 L92.3999169,127.096142 C93.743233,127.096142 94.8319924,126.003102 94.8319924,124.657397 C94.8319924,123.310237 93.743233,122.218362 92.3999169,122.218362 L14.5891734,122.218362 C13.2458573,122.218362 12.1573881,123.310237 12.1573881,124.657397 C12.1573881,126.003102 13.2458573,127.096142 14.5891734,127.096142" id="Fill-14" stroke-width="2.5"></path>
            <path d="M94.4991821,95.060621 C84.6164624,104.927377 68.6467328,104.948918 58.7370191,95.109524 C58.3341404,94.6804586 57.9277785,94.2502289 57.5385419,93.7894349 C48.496701,83.395225 49.389536,67.6609853 59.5482915,58.3606883 C69.7070469,49.0615556 85.4120608,49.601817 94.9122199,59.5762764 C104.412379,69.5519002 104.228936,85.3108824 94.4991821,95.060621 M97.9349714,55.6995517 C86.4360926,44.179118 67.9042517,43.8638685 56.0231026,54.9855101 C44.1410827,66.1086071 43.1803272,84.6707774 53.8493571,96.9672547 C54.2658779,97.45512 54.7355161,97.9624883 55.2547885,98.5106091 C67.0590191,110.285164 86.1307408,110.285164 97.9349714,98.5106091 C109.68028,86.6714329 109.68028,67.5396012 97.9349714,55.6995517" id="Fill-16" stroke-width="2.5"></path>
            <path d="M141.121858,134.533032 C141.204582,137.504178 139.425588,140.210725 136.669874,141.306093 C133.914451,142.400006 130.769501,141.64987 128.801548,139.427695 L110.296992,118.267846 L117.769115,110.896887 L138.742029,129.455565 C140.211898,130.741305 141.077739,132.58681 141.126503,134.54322 L141.121858,134.533032 Z M79.2695245,112.464111 C77.4757272,112.621881 75.6720612,112.621881 73.878264,112.464111 C65.9919419,111.872909 58.5288167,108.654337 52.6757551,103.319256 C52.4325185,103.104723 52.2209201,102.875345 51.9991626,102.64946 L51.5611626,102.19798 C41.5312819,92.1405606 38.4498982,77.0534121 43.7291189,63.8513566 C44.3447571,62.3397309 45.0654688,60.873515 45.8860294,59.4626061 C47.4273018,56.7243309 49.3374926,54.2128141 51.5611626,51.9973349 C65.3942998,38.1609962 87.7851268,38.1609962 101.618264,51.9973349 C101.997342,52.3809903 102.376709,52.7861863 102.739823,53.1878893 L102.756948,53.2071012 C114.273532,65.874717 115.11325,84.9873368 104.750733,98.6207863 C103.782141,99.8771269 102.735179,101.072048 101.618264,102.19798 C100.50135,103.313434 99.3165145,104.35757 98.0684032,105.324569 C92.6275085,109.48627 86.0943714,111.966931 79.2695245,112.464111 L79.2695245,112.464111 Z M108.30756,113.38337 L102.936618,107.628248 C103.665457,106.98727 104.395457,106.333483 105.064212,105.653499 C105.674336,105.04425 106.262689,104.409675 106.846689,103.743664 L112.380467,109.294442 L108.30756,113.38337 Z M116.230165,106.258673 L109.829676,99.8395764 C120.343707,84.4109804 118.909831,63.7582081 106.36457,49.939917 C105.946888,49.4712636 105.504534,49.0014457 105.06189,48.5575349 C89.3298823,32.8157269 63.8599936,32.8157269 48.1276954,48.5575349 C45.5963515,51.0780754 43.4223157,53.9368616 41.6671229,57.0532616 C40.7414887,58.6536695 39.9290553,60.3160794 39.2364986,62.029721 C33.2240851,77.046717 36.7263435,94.212824 48.1378545,105.653499 L48.507934,106.03599 C48.8135761,106.352695 49.1157352,106.668236 49.4335682,106.948555 C56.074101,113.003208 64.5412302,116.660743 73.4901885,117.341891 C74.5211865,117.433875 75.5643753,117.480159 76.6023396,117.480159 C77.6411746,117.480159 78.6596915,117.433875 79.6712421,117.34422 C86.603775,116.826664 93.2826219,114.509012 99.0506378,110.618897 L105.498729,117.529062 C105.243012,119.003137 105.667369,120.513889 106.651926,121.638367 L125.158805,142.67363 C127.337194,145.138572 130.430188,146.598093 133.713012,146.709289 L134.083091,146.709289 C139.031707,146.702303 143.461051,143.630149 145.212761,138.988442 C146.96331,134.347026 145.671079,129.102473 141.96593,125.812584 L120.993306,107.252743 C119.689755,106.10527 117.881155,105.727436 116.230165,106.258673 L116.230165,106.258673 Z" id="Fill-18" stroke-width="2.5"></path>
            <path d="M76.386068,59.036015 C75.7977141,58.7682131 75.1277976,58.7478368 74.5246406,58.9757596 C73.9203225,59.2051378 73.431237,59.6647675 73.1665213,60.2548051 L61.0081753,87.0789576 C60.6256147,87.8756685 60.7025332,88.8176329 61.2096147,89.5406982 C61.716406,90.2646368 62.5744099,90.6561517 63.4512807,90.5641675 C64.3284417,90.4721834 65.0865968,89.9106725 65.4340362,89.0979517 L77.5923821,62.2737992 C77.8617419,61.6849259 77.8867042,61.0119279 77.6603026,60.4035517 C77.433901,59.7951754 76.9744219,59.303817 76.386068,59.036015" id="Fill-21" stroke-width="2.5"></path>
            <path d="M66.739938,59.0723139 C66.1629042,58.7829713 65.4938584,58.7352327 64.8828644,58.9407416 C64.2707093,59.1450861 63.7647889,59.5852129 63.476272,60.1650624 L56.1817869,74.7960743 C55.5818227,76.0014743 56.0697471,77.4665257 57.2714171,78.0679158 C58.4733773,78.6707614 59.9342481,78.1814406 60.5339221,76.9763317 L67.8286974,62.3453198 C68.1172143,61.7666347 68.1648167,61.0956743 67.9610553,60.4817673 C67.7561328,59.8678604 67.3169718,59.3604921 66.739938,59.0723139" id="Fill-23" stroke-width="2.5"></path>
            <path d="M26.7470258,33.8837911 C20.8742266,33.8837911 16.0962823,38.6754089 16.0962823,44.5653059 C16.0962823,48.7601911 18.5628986,52.5848109 22.380668,54.3086406 C23.0572604,54.6142842 23.4926481,55.2896109 23.4926481,56.0339257 L23.4926481,63.4398149 L24.8829861,62.045498 C25.2365209,61.6906604 25.7166083,61.4912644 26.2170139,61.4912644 C26.7174195,61.4912644 27.1972167,61.6906604 27.5510417,62.045498 L28.6577972,63.1554208 L28.6577972,56.5433317 C28.6577972,55.7192584 29.1895507,54.9897891 29.972668,54.7400347 C34.3445408,53.3457178 37.3977694,49.161603 37.3977694,44.5653059 C37.3977694,38.6754089 32.619825,33.8837911 26.7470258,33.8837911 M21.6053877,69.8996644 C21.3624414,69.8996644 21.117173,69.8525079 20.8838052,69.7555752 C20.1787674,69.4627396 19.7192883,68.7728584 19.7192883,68.0075851 L19.7192883,57.1979911 C15.1886441,54.659403 12.3229225,49.8276149 12.3229225,44.5653059 C12.3229225,36.5888822 18.7936541,30.0996327 26.7470258,30.0996327 C34.7003976,30.0996327 41.1711292,36.5888822 41.1711292,44.5653059 C41.1711292,50.3192644 37.6398449,55.5955455 32.4311571,57.8529416 L32.4311571,67.7234822 C32.4311571,68.4887554 31.9716779,69.1786366 31.2663499,69.4714723 C30.5616024,69.7640168 29.7497495,69.6027535 29.2104493,69.0613277 L26.2170139,66.0590347 L22.939996,69.3454307 C22.5789145,69.7075455 22.096505,69.8996644 21.6053877,69.8996644" id="Fill-25" stroke-width="1.5"></path>
        </g>
    </g>
</svg>