<?xml version="1.0" encoding="UTF-8" standalone="no"?>
<svg
   xmlns:dc="http://purl.org/dc/elements/1.1/"
   xmlns:cc="http://creativecommons.org/ns#"
   xmlns:rdf="http://www.w3.org/1999/02/22-rdf-syntax-ns#"
   xmlns:svg="http://www.w3.org/2000/svg"
   xmlns="http://www.w3.org/2000/svg"
   xmlns:sodipodi="http://sodipodi.sourceforge.net/DTD/sodipodi-0.dtd"
   xmlns:inkscape="http://www.inkscape.org/namespaces/inkscape"
   width="109.87099mm"
   height="137.75208mm"
   viewBox="0 0 109.87099 137.75208"
   version="1.1"
   id="svg745"
   sodipodi:docname="UploadDocument.svg"
   inkscape:version="1.0.2-2 (e86c870879, 2021-01-15)">
  <defs
     id="defs739">
    <inkscape:path-effect
       effect="simplify"
       id="path-effect1038"
       is_visible="true"
       lpeversion="1"
       steps="1"
       threshold="0.000851064"
       smooth_angles="360"
       helper_size="0"
       simplify_individual_paths="false"
       simplify_just_coalesce="false" />
    <inkscape:path-effect
       effect="simplify"
       id="path-effect1034"
       is_visible="true"
       lpeversion="1"
       steps="1"
       threshold="0.000851064"
       smooth_angles="360"
       helper_size="0"
       simplify_individual_paths="false"
       simplify_just_coalesce="false" />
    <inkscape:path-effect
       effect="simplify"
       id="path-effect1030"
       is_visible="true"
       lpeversion="1"
       steps="1"
       threshold="0.000851064"
       smooth_angles="360"
       helper_size="0"
       simplify_individual_paths="false"
       simplify_just_coalesce="false" />
  </defs>
  <sodipodi:namedview
     id="base"
     pagecolor="#ffffff"
     bordercolor="#666666"
     borderopacity="1.0"
     inkscape:pageopacity="0.0"
     inkscape:pageshadow="2"
     inkscape:zoom="0.57982756"
     inkscape:cx="-122.26769"
     inkscape:cy="108.46072"
     inkscape:document-units="mm"
     inkscape:current-layer="layer1"
     inkscape:document-rotation="0"
     showgrid="false"
     inkscape:window-width="1366"
     inkscape:window-height="705"
     inkscape:window-x="-8"
     inkscape:window-y="-8"
     inkscape:window-maximized="1"
     fit-margin-top="0"
     fit-margin-left="0"
     fit-margin-right="0"
     fit-margin-bottom="0" />
  <metadata
     id="metadata742">
    <rdf:RDF>
      <cc:Work
         rdf:about="">
        <dc:format>image/svg+xml</dc:format>
        <dc:type
           rdf:resource="http://purl.org/dc/dcmitype/StillImage" />
        <dc:title></dc:title>
      </cc:Work>
    </rdf:RDF>
  </metadata>
  <g
     inkscape:label="Capa 1"
     inkscape:groupmode="layer"
     id="layer1"
     transform="translate(-54.852642,-78.084351)">
    <rect
       style="fill:#000000;fill-rule:evenodd;stroke-width:0.264583"
       id="rect751"
       width="94.217476"
       height="108.41463"
       x="54.852642"
       y="78.084351" />
    <rect
       style="fill:#ffffff;stroke-width:0.264583"
       id="rect753"
       width="90.990845"
       height="104.54268"
       x="56.788616"
       y="80.020325"
       ry="0" />
    <rect
       style="fill:#000000;fill-rule:evenodd;stroke-width:0.264583"
       id="rect751-7"
       width="94.217476"
       height="108.41463"
       x="70.506157"
       y="90.044899" />
    <rect
       style="fill:#ffffff;stroke-width:0.265192"
       id="rect753-9"
       width="90.600777"
       height="105.47711"
       x="72.205864"
       y="91.530426"
       ry="0"
       inkscape:transform-center-x="15.448164"
       inkscape:transform-center-y="-3.2227493" />
    <ellipse
       style="fill:#000000;stroke-width:0.264583"
       id="path978"
       cx="118.18528"
       cy="193.93336"
       rx="24.640945"
       ry="21.903063" />
    <ellipse
       style="fill:#ffffff;stroke-width:0.264583"
       id="path978-9"
       cx="118.18527"
       cy="193.93338"
       rx="22.815691"
       ry="19.621494" />
    <g
       id="g1026"
       transform="matrix(0.07025685,0,0,0.05117267,100.42764,182.73359)">
      <path
         d="M 413.49219,128.91016 C 396.19922,42.144531 311.84375,-14.171875 225.07812,3.121094 161.61719,15.769531 111.99609,65.359375 99.308594,128.8125 c -61.519532,7.08984 -105.648438,62.70703 -98.5625,124.23047 6.523437,56.62109 54.480468,99.33984 111.476566,99.30078 h 80.09375 c 8.84765,0 16.01953,-7.17188 16.01953,-16.01953 0,-8.84766 -7.17188,-16.01953 -16.01953,-16.01953 h -80.09375 c -44.238285,-0.26172 -79.882816,-36.33203 -79.625004,-80.56641 0.261719,-44.23437 36.332032,-79.88281 80.570314,-79.625 8.16406,0.004 15.02344,-6.14062 15.92187,-14.25391 8.13282,-70.308589 71.72266,-120.710932 142.03125,-112.57812 59.10938,6.839844 105.73828,53.464844 112.57422,112.57812 1.34375,8.25782 8.5,14.3086 16.86719,14.25391 44.23828,0 80.09766,35.85938 80.09766,80.09766 0,44.23437 -35.85938,80.09375 -80.09766,80.09375 h -80.09375 c -8.84766,0 -16.01953,7.17187 -16.01953,16.01953 0,8.84765 7.17187,16.01953 16.01953,16.01953 h 80.09766 C 462.49219,351.95703 512.38281,301.44531 512,239.51562 511.64844,183.12109 469.46875,135.76172 413.49219,128.91016 Z m 0,0"
         id="path1012" />
      <path
         d="m 313.01953,287.46484 c 6.14844,6.36719 16.28906,6.54297 22.65234,0.39453 6.36329,-6.14453 6.53907,-16.28515 0.39454,-22.64843 -0.12891,-0.13672 -0.26172,-0.26563 -0.39454,-0.39453 l -67.9375,-67.95313 c -6.24609,-6.26562 -16.39062,-6.27734 -22.65625,-0.0312 -0.008,0.0117 -0.0195,0.0195 -0.0273,0.0312 l -67.9375,67.95313 c -6.36328,6.14453 -6.53906,16.28515 -0.39453,22.64843 6.14844,6.36328 16.28906,6.53907 22.65234,0.39453 0.13282,-0.1289 0.26563,-0.26171 0.39453,-0.39453 l 40.60938,-40.625 v 201.61719 c 0,8.84766 7.17187,16.01953 16.01953,16.01953 8.84375,0 16.01563,-7.17187 16.01563,-16.01953 V 246.83984 Z m 0,0"
         id="path1014" />
    </g>
    <rect
       style="fill:#000000;stroke-width:0.264583"
       id="rect1044"
       width="54.301346"
       height="1.8252554"
       x="90.121979"
       y="116.36003" />
    <rect
       style="fill:#000000;stroke-width:0.264583"
       id="rect1044-4"
       width="54.301346"
       height="1.8252554"
       x="90.350143"
       y="128.45235" />
    <rect
       style="fill:#000000;stroke-width:0.264583"
       id="rect1044-4-4"
       width="54.301346"
       height="1.8252554"
       x="90.80645"
       y="140.54465" />
    <rect
       style="fill:#000000;stroke-width:0.264583"
       id="rect1044-4-4-4"
       width="54.301346"
       height="1.8252554"
       x="90.80645"
       y="154.00592" />
    <rect
       style="fill:#000000;stroke-width:0.264583"
       id="rect1044-4-4-6"
       width="54.301346"
       height="1.8252554"
       x="91.719078"
       y="167.46718" />
    <rect
       style="fill:#000000;stroke-width:0.0789453"
       id="rect1044-4-4-5"
       width="4.8343315"
       height="1.8252554"
       x="65.744446"
       y="108.18274" />
    <rect
       style="fill:#000000;stroke-width:0.0789453"
       id="rect1044-4-4-5-3"
       width="4.8343315"
       height="1.8252554"
       x="65.915833"
       y="115.90371" />
    <rect
       style="fill:#000000;stroke-width:0.0789453"
       id="rect1044-4-4-5-2"
       width="4.8343315"
       height="1.8252554"
       x="65.915833"
       y="123.43289" />
    <rect
       style="fill:#000000;stroke-width:0.0789453"
       id="rect1044-4-4-5-7"
       width="4.8343315"
       height="1.8252554"
       x="66.029907"
       y="130.7339" />
    <rect
       style="fill:#000000;stroke-width:0.0789453"
       id="rect1044-4-4-5-6"
       width="4.8343315"
       height="1.8252554"
       x="66.258064"
       y="138.14902" />
  </g>
</svg>
